<svg fill="none" height="13" viewBox="0 0 43 13" width="43" xmlns="http://www.w3.org/2000/svg"><path d="m42.7685 10.9838c0 .6576-.5437 1.1902-1.2163 1.1902h-39.80326c-.67223 0-1.217873-.5326-1.217873-1.1902v-9.49145c0-.65725.545643-1.191752 1.217873-1.191752h39.80296c.6729 0 1.2163.534502 1.2163 1.191752z" fill="#0d0d0f"/><g fill="#fff"><path d="m41.4238.314971c.7325 0 1.3285.581092 1.3285 1.295209v9.25432c0 .7141-.596 1.2952-1.3285 1.2952h-39.54811c-.73243 0-1.328424-.5811-1.328424-1.2952v-9.25432c0-.714117.595994-1.295209 1.328424-1.295209zm0-.2471657h-39.54811c-.86967 0-1.581928.6944557-1.581928 1.5423747v9.25432c0 .8479.712258 1.5423 1.581928 1.5423h39.54811c.8697 0 1.582-.6944 1.582-1.5423v-9.25432c0-.847919-.7123-1.5423747-1.582-1.5423747z"/><path d="m9.82583 6.17067c-.00918-.99422.83497-1.47791.87357-1.50043-.4781-.67957-1.21907-.77242-1.47945-.77982-.62233-.06386-1.22599.36307-1.54301.36307-.32335 0-.81153-.3569-1.33768-.34642-.67706.01018-1.31047.39239-1.65786.98589-.71693 1.21015-.18223 2.98851.50464 3.96669.34359.47906.74508 1.01396 1.2706.99514.51413-.02066.70617-.31958 1.3266-.31958.61474 0 .79508.31958 1.33104.30755.55177-.00863.89912-.48122 1.23072-.9646.3971-.54909.5565-1.08984.5629-1.11761-.013-.00432-1.07163-.39824-1.08207-1.58988z"/><path d="m8.81339 3.24694c.27653-.33717.46572-.79587.4132-1.26136-.40022.01728-.90074.26992-1.18897.59968-.25501.29058-.48281.76687-.42396 1.21477.44959.0327.91119-.22117 1.19973-.55309z"/><path d="m15.8124 3.15533c0 .36308-.1116.63639-.3347.81993-.2066.16936-.5002.25419-.8805.25419-.1886 0-.3499-.00802-.485-.02406v-1.98381c.1762-.02776.366-.04195.5711-.04195.3622 0 .6353.07681.8194.23043.2063.17367.3097.42199.3097.74527zm-.3496.00895c0-.23537-.0639-.41582-.1917-.54168-.1278-.12555-.3145-.18848-.5603-.18848-.1044 0-.1933.00679-.267.02098v1.50813c.0408.00617.1154.00895.224.00895.2537 0 .4495-.06879.5875-.20637.1379-.13758.2075-.33809.2075-.60153z"/><path d="m17.6662 3.47244c0 .22365-.0655.40688-.1965.55063-.1373.14776-.3192.22149-.5464.22149-.2189 0-.3932-.07064-.5233-.21254-.1297-.14159-.1946-.3202-.1946-.53552 0-.22518.0668-.40996.2009-.5534.1342-.14344.3145-.21532.5417-.21532.2189 0 .3948.07064.528.21223.1266.13758.1902.31527.1902.53243zm-.3439.01049c0-.13419-.0298-.24925-.0889-.34518-.0696-.11599-.1687-.17398-.2974-.17398-.1332 0-.2345.05799-.3041.17398-.0594.09593-.0889.21285-.0889.35104 0 .13419.0298.24925.0889.34519.0719.11598.1718.17398.3009.17398.1266 0 .2259-.05892.2974-.17707.0614-.09778.0921-.21377.0921-.34796z"/><path d="m20.1517 2.7574-.4667 1.45415h-.3037l-.1933-.63144c-.0491-.15764-.0889-.31434-.1199-.46981h-.006c-.0288.15979-.0687.31618-.1199.46981l-.2054.63144h-.3072l-.4388-1.45415h.3407l.1687.69129c.0408.1635.0743.31928.1012.46673h.006c.0247-.12154.0655-.2764.1231-.46364l.2117-.69407h.2701l.2028.67926c.0491.16565.089.32514.1196.47876h.0092c.0225-.14961.0563-.3091.1013-.47876l.1809-.67926h.3256z"/><path d="m21.8706 4.21155h-.3316v-.83289c0-.25665-.1-.38498-.3005-.38498-.0984 0-.1779.03517-.2395.10581-.0611.07064-.0921.15393-.0921.24925v.8625h-.3316v-1.03833c0-.12771-.0041-.26622-.012-.41614h.2914l.0155.22735h.0092c.0386-.07064.0961-.12894.1718-.17552.0898-.05429.1904-.08175.3005-.08175.1392 0 .255.04381.3471.13172.1145.10766.1718.26838.1718.48184z"/><path d="m22.7849 4.21155h-.3312v-2.12139h.3312z"/><path d="m24.7371 3.47244c0 .22365-.0655.40688-.1965.55063-.1373.14776-.3196.22149-.5464.22149-.2193 0-.3936-.07064-.5233-.21254-.1297-.14159-.1946-.3202-.1946-.53552 0-.22518.0668-.40996.2009-.5534.1342-.14344.3145-.21532.5413-.21532.2193 0 .3949.07064.5284.21223.1266.13758.1902.31527.1902.53243zm-.3443.01049c0-.13419-.0297-.24925-.0889-.34518-.0693-.11599-.1686-.17398-.2971-.17398-.1335 0-.2347.05799-.304.17398-.0595.09593-.0889.21285-.0889.35104 0 .13419.0297.24925.0889.34519.0718.11598.1718.17398.3009.17398.1265 0 .2256-.05892.2971-.17707.0617-.09778.092-.21377.092-.34796z"/><path d="m26.3418 4.21155h-.2977l-.0247-.1675h-.0092c-.1019.13357-.2471.20051-.4357.20051-.1407 0-.2546-.04411-.3404-.13172-.0778-.07959-.1167-.17861-.1167-.29614 0-.17768.0759-.3131.2287-.40688.1525-.09377.367-.13974.6432-.13758v-.02714c0-.19157-.1031-.28719-.3097-.28719-.1471 0-.2768.03609-.3888.10765l-.0674-.21223c.1385-.08359.3097-.12555.5116-.12555.3897 0 .5853.20051.5853.60153v.53551c0 .1453.0072.26097.0215.34673zm-.3442-.49973v-.22426c-.3658-.00617-.5487.09162-.5487.29305 0 .07589.0209.13264.0636.17059.0427.03794.0972.05676.162.05676.0728 0 .1408-.02252.2028-.06725.0624-.04504.1006-.10211.1149-.17213.0035-.01573.0054-.03486.0054-.05676z"/><path d="m28.2259 4.21155h-.2943l-.0155-.23352h-.0092c-.0939.17769-.254.26653-.479.26653-.1797 0-.3293-.06879-.448-.20637-.1186-.13758-.1778-.31619-.1778-.53552 0-.23536.0643-.426.1933-.5716.125-.13573.2781-.2036.4604-.2036.2002 0 .3404.06571.4201.19743h.0064v-.83474h.3318v1.72963c0 .14159.0038.27207.0118.39176zm-.3436-.61325v-.24246c0-.04195-.0032-.07589-.0092-.1018-.0187-.07773-.0589-.14313-.1199-.19588-.0617-.05275-.1361-.07928-.2218-.07928-.1237 0-.2205.04782-.2917.14375-.0706.09594-.1063.2184-.1063.36801 0 .14375.0338.26036.1019.35012.0718.09563.1686.14344.2898.14344.1088 0 .1958-.03979.2619-.11968.0639-.07373.0953-.16257.0953-.26622z"/><path d="m31.0616 3.47244c0 .22365-.0655.40688-.1965.55063-.1373.14776-.3189.22149-.5464.22149-.2186 0-.3929-.07064-.5233-.21254-.1297-.14159-.1946-.3202-.1946-.53552 0-.22518.0668-.40996.2009-.5534.1342-.14344.3145-.21532.542-.21532.2186 0 .3949.07064.5277.21223.1266.13758.1902.31527.1902.53243zm-.3436.01049c0-.13419-.0298-.24925-.0889-.34518-.0699-.11599-.1687-.17398-.2977-.17398-.1329 0-.2342.05799-.3041.17398-.0595.09593-.0889.21285-.0889.35104 0 .13419.0298.24925.0889.34519.0718.11598.1718.17398.3009.17398.1266 0 .2262-.05892.2977-.17707.0611-.09778.0921-.21377.0921-.34796z"/><path d="m32.8445 4.21155h-.3313v-.83289c0-.25665-.1-.38498-.3009-.38498-.0984 0-.1778.03517-.2392.10581-.0613.07064-.092.15393-.092.24925v.8625h-.3319v-1.03833c0-.12771-.0038-.26622-.0117-.41614h.291l.0156.22735h.0091c.0389-.07064.0965-.12894.1718-.17552.0902-.05429.1905-.08175.3009-.08175.1389 0 .2547.04381.3468.13172.1148.10766.1718.26838.1718.48184z"/><path d="m35.0759 2.99955h-.3651v.70641c0 .17953.0648.2693.1933.2693.0595 0 .1088-.00494.1477-.01511l.0086.24523c-.0655.02406-.1516.03609-.2576.03609-.1309 0-.2328-.03886-.3065-.1166-.0741-.07773-.1108-.20853-.1108-.39207v-.73325h-.218v-.24215h.218v-.26652l.325-.09563v.36184h.3651v.24246z"/><path d="m36.8312 4.21155h-.3319v-.82671c0-.26067-.0999-.39115-.3002-.39115-.1538 0-.2588.07558-.3164.22673-.0098.03177-.0155.07064-.0155.11629v.87453h-.3313v-2.12108h.3313v.87638h.0063c.1044-.15948.2541-.23907.448-.23907.1374 0 .2509.04381.3411.13172.1123.10951.1686.27239.1686.4877z"/><path d="m38.6419 3.41568c0 .058-.0044.10674-.0124.14653h-.9943c.0044.14375.0518.25326.1439.32914.0842.06787.1927.1018.3256.1018.1471 0 .2812-.02283.4021-.06879l.0519.22457c-.1414.05984-.3079.08977-.5005.08977-.231 0-.4129-.06633-.5445-.19897-.1323-.13265-.1978-.31064-.1978-.53397 0-.21933.0611-.40195.1842-.54755.1284-.15547.3021-.2332.5214-.2332.2145 0 .3774.07773.4875.2332.0889.12339.1329.27609.1329.45747zm-.3164-.08359c.0025-.09594-.0193-.17861-.0642-.24833-.0576-.08976-.1452-.1348-.2639-.1348-.1082 0-.1965.0438-.2639.13172-.055.07002-.0876.15362-.0983.25141z"/><path d="m17.2663 9.78601h-.7186l-.3935-1.20583h-1.3681l-.3749 1.20583h-.6995l1.3554-4.10519h.8371zm-1.2308-1.71173-.3559-1.07195c-.0377-.10951-.1082-.3674-.2123-.77335h-.0127c-.0414.1746-.1082.43248-.1999.77335l-.3496 1.07195z"/><path d="m20.7519 8.26954c0 .50343-.1395.90137-.4186 1.19349-.2499.26005-.5603.38992-.9308.38992-.3999 0-.6872-.14005-.8621-.42015h-.0127v1.5593h-.6745v-3.19175c0-.3165-.0086-.64132-.025-.97447h.5932l.0377.46919h.0126c.225-.35352.5663-.52996 1.0245-.52996.3581 0 .6571.13788.8963.41397.2398.27639.3594.63978.3594 1.09046zm-.6872.02406c0-.28811-.0664-.52564-.1999-.71258-.1459-.19495-.3417-.29243-.5873-.29243-.1664 0-.3176.05429-.4527.16133-.1354.10797-.224.24894-.2654.42354-.0209.08144-.0314.14807-.0314.20051v.49356c0 .21532.0677.39701.2031.54538.1355.14838.3114.22242.5278.22242.254 0 .4518-.09563.5932-.28627.1417-.19095.2126-.44266.2126-.75546z"/><path d="m24.2438 8.26954c0 .50343-.1395.90137-.4189 1.19349-.2496.26005-.56.38992-.9304.38992-.4 0-.6872-.14005-.8619-.42015h-.0126v1.5593h-.6746v-3.19175c0-.3165-.0085-.64132-.025-.97447h.5933l.0376.46919h.0127c.2246-.35352.566-.52996 1.0244-.52996.3579 0 .6568.13788.8967.41397.2388.27639.3587.63978.3587 1.09046zm-.6872.02406c0-.28811-.0667-.52564-.2002-.71258-.1459-.19495-.3411-.29243-.5869-.29243-.1668 0-.3177.05429-.4531.16133-.1354.10797-.2237.24894-.2651.42354-.0206.08144-.0313.14807-.0313.20051v.49356c0 .21532.0677.39701.2024.54538.1355.14807.3114.22242.5284.22242.2541 0 .4518-.09563.5932-.28627.1418-.19095.2126-.44266.2126-.75546z"/><path d="m28.148 8.63478c0 .3492-.1243.6333-.3739.85263-.2743.23968-.6562.35937-1.1469.35937-.4531 0-.8163-.08514-1.0913-.25572l.1563-.54816c.2962.17459.6211.2622.9751.2622.2541 0 .4518-.05614.5939-.16781.1414-.11167.212-.26159.212-.44852 0-.16658-.0582-.30694-.175-.42077-.1161-.11382-.31-.21963-.5809-.31742-.7371-.26806-1.1054-.66075-1.1054-1.17714 0-.33747.1291-.61417.3876-.82949.2575-.21563.6011-.32328 1.0307-.32328.3832 0 .7015.06508.9555.19495l-.1686.53613c-.2373-.12585-.5056-.18878-.8058-.18878-.2373 0-.4227.05707-.5556.17058-.1123.10149-.1687.22519-.1687.37172 0 .16226.0643.29644.1934.40194.1123.09748.3163.20298.6125.31681.3622.1422.6283.30847.7995.49911.1705.19002.2556.42785.2556.71165z"/><path d="m30.3782 7.31944h-.7435v1.43719c0 .36555.131.54816.3936.54816.1205 0 .2205-.01018.2996-.03054l.0187.49943c-.1329.04843-.3079.0728-.5246.0728-.2664 0-.4746-.07928-.6249-.23753-.1496-.15856-.2249-.42446-.2249-.79803v-1.49209h-.443v-.49356h.443v-.542l.6625-.19495v.73695h.7435z"/><path d="m33.7329 8.28157c0 .455-.1336.82856-.4 1.12069-.2793.30076-.6501.45068-1.1124.45068-.4454 0-.8001-.14405-1.0646-.43217s-.3967-.65181-.3967-1.09015c0-.45871.136-.83443.409-1.12656.2724-.29243.6401-.43865 1.1023-.43865.4455 0 .804.14406 1.0745.43248.2588.27979.3879.64102.3879 1.08368zm-.6999.02128c0-.273-.0598-.50713-.181-.70239-.1414-.2363-.3436-.35414-.6055-.35414-.2712 0-.4771.11815-.6186.35414-.1211.19557-.1809.4334-.1809.71473 0 .273.0598.50714.1809.70209.1459.2363.3497.35413.6126.35413.2575 0 .4597-.1203.6055-.3603.1244-.19896.187-.43556.187-.70826z"/><path d="m35.9254 7.40427c-.0667-.01203-.1379-.0182-.2126-.0182-.2373 0-.4208.0873-.5499.2622-.1123.15424-.1686.3492-.1686.58456v1.55318h-.6742l.0063-2.02792c0-.34117-.0085-.65181-.0253-.93191h.5875l.0247.56637h.0187c.0711-.19465.1835-.35136.3372-.46889.1503-.1058.3126-.15855.4876-.15855.0623 0 .1186.00431.1686.01203z"/><path d="m38.9421 8.16589c0 .11784-.0079.21717-.0246.2983h-2.0236c.0079.29243.1056.51608.2936.67032.1705.13788.391.20698.6619.20698.2996 0 .5729-.04658.8188-.14005l.1056.45655c-.2872.12216-.6264.18292-1.0178.18292-.4708 0-.8403-.13511-1.1092-.40502-.2683-.26992-.4028-.63238-.4028-1.08707 0-.44637.125-.81808.3753-1.11452.2619-.3165.616-.47475 1.0614-.47475.4376 0 .7688.15825.9938.47475.1781.2514.2676.56235.2676.93159zm-.6432-.17059c.0045-.19495-.0395-.36338-.1309-.50559-.1168-.18292-.2962-.27423-.5376-.27423-.2205 0-.3999.08915-.5369.26806-.1123.14221-.1791.3128-.1996.51146h1.405z"/></g></svg>