<svg width="44" height="13" viewBox="0 0 44 13" fill="none" xmlns="http://www.w3.org/2000/svg">
<path d="M41.8817 12.4068H2.33351C1.46385 12.4068 0.751587 11.7124 0.751587 10.8644V1.61017C0.751587 0.762245 1.46385 0.0677889 2.33351 0.0677889H41.8817C42.7513 0.0677889 43.4636 0.762245 43.4636 1.61017V10.8644C43.4636 11.7124 42.7513 12.4068 41.8817 12.4068Z" fill="url(#paint0_linear_1_11348)"/>
<path d="M41.8817 0.314955C42.6141 0.314955 43.2101 0.896046 43.2101 1.61017V10.8644C43.2101 11.5786 42.6141 12.1596 41.8817 12.1596H2.33351C1.60108 12.1596 1.00509 11.5786 1.00509 10.8644V1.61017C1.00509 0.896046 1.60108 0.314955 2.33351 0.314955H41.8817ZM41.8817 0.0677889H2.33351C1.46385 0.0677889 0.751587 0.762245 0.751587 1.61017V10.8644C0.751587 11.7124 1.46385 12.4068 2.33351 12.4068H41.8817C42.7513 12.4068 43.4636 11.7124 43.4636 10.8644V1.61017C43.4636 0.762245 42.7513 0.0677889 41.8817 0.0677889Z" fill="white"/>
<path d="M3.81579 2.3933C3.72285 2.48816 3.66907 2.63584 3.66907 2.8271V9.64904C3.66907 9.84029 3.72285 9.98797 3.81579 10.0828L3.83873 10.1037L7.75953 6.28241V6.19218L3.83873 2.37094L3.81579 2.3933Z" fill="white"/>
<path d="M9.53955 7.55681L8.23407 6.28242V6.19219L9.54114 4.9178L9.5704 4.93438L11.1183 5.7931C11.5601 6.03679 11.5601 6.43781 11.1183 6.68305L9.5704 7.54023L9.53955 7.55681V7.55681Z" fill="white"/>
<path d="M9.33311 7.77752L7.99678 6.47459L4.05304 10.3201C4.19976 10.4705 4.43903 10.4886 4.71112 10.3382L9.33311 7.77752" fill="white"/>
<path d="M9.33311 4.69709L4.71112 2.13636C4.43903 1.98752 4.19976 2.00564 4.05304 2.15602L7.99678 6.00002L9.33311 4.69709Z" fill="white"/>
<path d="M15.7538 3.22773C15.7538 3.48531 15.6747 3.6916 15.5189 3.84546C15.3397 4.02784 15.1064 4.11961 14.8204 4.11961C14.5472 4.11961 14.3138 4.0263 14.1224 3.84237C13.9306 3.65574 13.8349 3.4267 13.8349 3.15254C13.8349 2.87838 13.9306 2.64934 14.1224 2.46426C14.3138 2.27878 14.5472 2.18547 14.8204 2.18547C14.9565 2.18547 15.0862 2.21285 15.21 2.26375C15.3334 2.31503 15.4338 2.38444 15.5066 2.47004L15.3413 2.63276C15.2143 2.48662 15.0415 2.41451 14.8204 2.41451C14.6211 2.41451 14.4483 2.48238 14.3016 2.61926C14.1564 2.75654 14.0837 2.9343 14.0837 3.15254C14.0837 3.37079 14.1564 3.55009 14.3016 3.68736C14.4483 3.8227 14.6211 3.89211 14.8204 3.89211C15.032 3.89211 15.21 3.8227 15.3504 3.68582C15.4429 3.5952 15.4955 3.47027 15.5094 3.31064H14.8204V3.08776H15.7395C15.7506 3.13596 15.7538 3.18262 15.7538 3.22773V3.22773Z" fill="white" stroke="white" stroke-opacity="0.2" stroke-width="0.0379662" stroke-miterlimit="10"/>
<path d="M17.2119 2.45501H16.3486V3.04111H17.1269V3.26398H16.3486V3.85009H17.2119V4.0772H16.1042V2.22789H17.2119V2.45501Z" fill="white" stroke="white" stroke-opacity="0.2" stroke-width="0.0379662" stroke-miterlimit="10"/>
<path d="M18.2409 4.0772H17.9965V2.45501H17.467V2.22789H18.7709V2.45501H18.2409V4.0772V4.0772Z" fill="white" stroke="white" stroke-opacity="0.2" stroke-width="0.0379662" stroke-miterlimit="10"/>
<path d="M19.7145 4.0772V2.22789H19.9586V4.0772H19.7145Z" fill="white" stroke="white" stroke-opacity="0.2" stroke-width="0.0379662" stroke-miterlimit="10"/>
<path d="M21.0402 4.0772H20.7978V2.45501H20.2662V2.22789H21.5717V2.45501H21.0402V4.0772Z" fill="white" stroke="white" stroke-opacity="0.2" stroke-width="0.0379662" stroke-miterlimit="10"/>
<path d="M24.0403 3.83929C23.8532 4.0263 23.6215 4.11961 23.345 4.11961C23.067 4.11961 22.8353 4.0263 22.6482 3.83929C22.4615 3.65266 22.3686 3.42361 22.3686 3.15254C22.3686 2.88147 22.4615 2.65243 22.6482 2.4658C22.8353 2.27878 23.067 2.18547 23.345 2.18547C23.6199 2.18547 23.8516 2.27878 24.0387 2.46734C24.227 2.65551 24.3199 2.88301 24.3199 3.15254C24.3199 3.42361 24.227 3.65266 24.0403 3.83929ZM22.8289 3.68428C22.9697 3.8227 23.141 3.89211 23.345 3.89211C23.5475 3.89211 23.7203 3.8227 23.8596 3.68428C24 3.54585 24.0711 3.36809 24.0711 3.15254C24.0711 2.93699 24 2.75924 23.8596 2.62081C23.7203 2.48238 23.5475 2.41297 23.345 2.41297C23.141 2.41297 22.9697 2.48238 22.8289 2.62081C22.6885 2.75924 22.6173 2.93699 22.6173 3.15254C22.6173 3.36809 22.6885 3.54585 22.8289 3.68428V3.68428Z" fill="white" stroke="white" stroke-opacity="0.2" stroke-width="0.0379662" stroke-miterlimit="10"/>
<path d="M24.6628 4.0772V2.22789H24.9594L25.8817 3.66616H25.8923L25.8817 3.31064V2.22789H26.1257V4.0772H25.871L24.9052 2.56798H24.8945L24.9052 2.92504V4.0772H24.6628V4.0772Z" fill="white" stroke="white" stroke-opacity="0.2" stroke-width="0.0379662" stroke-miterlimit="10"/>
<path d="M22.3085 6.7779C21.5654 6.7779 20.9583 7.3293 20.9583 8.09008C20.9583 8.84469 21.5654 9.40187 22.3085 9.40187C23.0532 9.40187 23.6602 8.84469 23.6602 8.09008C23.6602 7.3293 23.0532 6.7779 22.3085 6.7779ZM22.3085 8.88518C21.9007 8.88518 21.5499 8.55704 21.5499 8.09008C21.5499 7.61696 21.9007 7.2946 22.3085 7.2946C22.7162 7.2946 23.0686 7.61696 23.0686 8.09008C23.0686 8.55704 22.7162 8.88518 22.3085 8.88518V8.88518ZM19.3625 6.7779C18.6178 6.7779 18.0124 7.3293 18.0124 8.09008C18.0124 8.84469 18.6178 9.40187 19.3625 9.40187C20.1068 9.40187 20.7127 8.84469 20.7127 8.09008C20.7127 7.3293 20.1068 6.7779 19.3625 6.7779ZM19.3625 8.88518C18.9544 8.88518 18.6024 8.55704 18.6024 8.09008C18.6024 7.61696 18.9544 7.2946 19.3625 7.2946C19.7703 7.2946 20.1211 7.61696 20.1211 8.09008C20.1211 8.55704 19.7703 8.88518 19.3625 8.88518ZM15.857 7.18008V7.73765H17.2226C17.1826 8.04921 17.0759 8.27825 16.9121 8.43789C16.7128 8.63068 16.4024 8.84469 15.857 8.84469C15.0166 8.84469 14.3585 8.1834 14.3585 7.36401C14.3585 6.54462 15.0166 5.88332 15.857 5.88332C16.3114 5.88332 16.642 6.05646 16.886 6.28087L17.289 5.88795C16.9477 5.57022 16.4937 5.32614 15.857 5.32614C14.7046 5.32614 13.736 6.24038 13.736 7.36401C13.736 8.48763 14.7046 9.40187 15.857 9.40187C16.4799 9.40187 16.9477 9.20291 17.3155 8.82965C17.6924 8.46218 17.8099 7.94548 17.8099 7.52827C17.8099 7.39871 17.7988 7.27956 17.779 7.18008H15.857ZM30.1916 7.61233C30.0805 7.31889 29.7376 6.7779 29.0392 6.7779C28.3471 6.7779 27.7709 7.30964 27.7709 8.09008C27.7709 8.82502 28.3412 9.40187 29.1056 9.40187C29.7238 9.40187 30.0805 9.0344 30.2272 8.8204L29.7684 8.52233C29.6154 8.74058 29.407 8.88518 29.1056 8.88518C28.8062 8.88518 28.5915 8.75138 28.4539 8.48763L30.2537 7.76155L30.1916 7.61233V7.61233ZM28.3566 8.04921C28.3412 7.54331 28.7596 7.28419 29.0593 7.28419C29.2943 7.28419 29.4936 7.39871 29.56 7.56259L28.3566 8.04921V8.04921ZM26.8937 9.32206H27.4853V5.46611H26.8937V9.32206ZM25.9248 7.07018H25.905C25.7721 6.91672 25.5186 6.7779 25.1975 6.7779C24.5236 6.7779 23.9074 7.35475 23.9074 8.09432C23.9074 8.82965 24.5236 9.40187 25.1975 9.40187C25.5186 9.40187 25.7721 9.2619 25.905 9.10381H25.9248V9.29198C25.9248 9.79364 25.6499 10.0632 25.2066 10.0632C24.8451 10.0632 24.6209 9.80868 24.5283 9.59467L24.0138 9.80405C24.1621 10.1519 24.5548 10.5799 25.2066 10.5799C25.9002 10.5799 26.4856 10.1819 26.4856 9.2137V6.85772H25.9248V7.07018V7.07018ZM25.2481 8.88518C24.8404 8.88518 24.499 8.55241 24.499 8.09432C24.499 7.63199 24.8404 7.2946 25.2481 7.2946C25.6499 7.2946 25.9667 7.63199 25.9667 8.09432C25.9667 8.55241 25.6499 8.88518 25.2481 8.88518V8.88518ZM32.9616 5.46611H31.5465V9.32206H32.1366V7.86104H32.9616C33.6169 7.86104 34.2595 7.39871 34.2595 6.66338C34.2595 5.92844 33.6153 5.46611 32.9616 5.46611V5.46611ZM32.977 7.32468H32.1366V6.00247H32.977C33.4176 6.00247 33.6691 6.35915 33.6691 6.66338C33.6691 6.96183 33.4176 7.32468 32.977 7.32468ZM36.6245 6.77058C36.1982 6.77058 35.7548 6.95412 35.5725 7.36092L36.0961 7.57493C36.2089 7.36092 36.4161 7.29151 36.6352 7.29151C36.9413 7.29151 37.2517 7.47082 37.2565 7.78739V7.82788C37.1497 7.76772 36.9211 7.67865 36.6399 7.67865C36.076 7.67865 35.5013 7.98134 35.5013 8.54624C35.5013 9.06294 35.9633 9.3957 36.4825 9.3957C36.8796 9.3957 37.0987 9.22103 37.2363 9.01782H37.2565V9.31589H37.8264V7.83675C37.8264 7.15309 37.3028 6.77058 36.6245 6.77058ZM36.5533 8.88363C36.3603 8.88363 36.0914 8.79032 36.0914 8.55704C36.0914 8.25859 36.4268 8.14406 36.7171 8.14406C36.9769 8.14406 37.0987 8.19998 37.2565 8.27362C37.2102 8.63068 36.895 8.88363 36.5533 8.88363V8.88363ZM39.9027 6.85502L39.2244 8.52657H39.2042L38.503 6.85502H37.8667L38.9203 9.19095L38.3191 10.4908H38.9357L40.5592 6.85502H39.9027V6.85502ZM34.5838 9.32206H35.1755V5.46611H34.5838V9.32206Z" fill="white"/>
<defs>
<linearGradient id="paint0_linear_1_11348" x1="-12.9063" y1="-4.81043" x2="-8.00092" y2="19.2854" gradientUnits="userSpaceOnUse">
<stop stop-color="#0D0D0F"/>
</linearGradient>
</defs>
</svg>
